<svg xmlns="http://www.w3.org/2000/svg" xmlns:xlink="http://www.w3.org/1999/xlink" width="375" height="370" viewBox="0 0 375 370">
  <defs>
    <filter id="Rectangle_5" x="11" y="0" width="364" height="370" filterUnits="userSpaceOnUse">
      <feOffset dx="3" dy="8" input="SourceAlpha"/>
      <feGaussianBlur stdDeviation="5" result="blur"/>
      <feFlood flood-opacity="0.161"/>
      <feComposite operator="in" in2="blur"/>
      <feComposite in="SourceGraphic"/>
    </filter>
  </defs>
  <g id="Component_6_1" data-name="Component 6 – 1" transform="translate(0 7)">
    <g transform="matrix(1, 0, 0, 1, 0, -7)" filter="url(#Rectangle_5)">
      <rect id="Rectangle_5-2" data-name="Rectangle 5" width="334" height="340" rx="21" transform="translate(23 7)" fill="#fff"/>
    </g>
    <g id="Group_1" data-name="Group 1" transform="translate(-1178 -396)">
      <circle id="Ellipse_1" data-name="Ellipse 1" cx="24" cy="24" r="24" transform="translate(1178 439)" fill="#00b12a"/>
      <path id="Path_1" data-name="Path 1" d="M1369.483,176.608l6.033,6.033,14.436-14.436" transform="translate(-177.717 287.577)" fill="none" stroke="#fff" stroke-width="4"/>
      <rect id="Rectangle_6" data-name="Rectangle 6" width="240" height="11" rx="4" transform="translate(1256 452)" fill="#ebd3d3"/>
      <rect id="Rectangle_7" data-name="Rectangle 7" width="60" height="11" rx="4" transform="translate(1256 470)" fill="#ebd3d3"/>
      <rect id="Rectangle_9" data-name="Rectangle 9" width="10" height="11" rx="5" transform="translate(1486 470)" fill="#ebd3d3"/>
      <rect id="Rectangle_10" data-name="Rectangle 10" width="10" height="11" rx="5" transform="translate(1473 470)" fill="#ebd3d3"/>
    </g>
    <g id="Group_2" data-name="Group 2" transform="translate(-1178 -328)">
      <g id="Ellipse_1-2" data-name="Ellipse 1" transform="translate(1178 439)" fill="#fff" stroke="#aa9595" stroke-width="2">
        <circle cx="24" cy="24" r="24" stroke="none"/>
        <circle cx="24" cy="24" r="23" fill="none"/>
      </g>
      <path id="Path_1-2" data-name="Path 1" d="M1369.483,176.608l6.033,6.033,14.436-14.436" transform="translate(-177.717 287.577)" fill="none" stroke="#fff" stroke-width="4"/>
      <rect id="Rectangle_6-2" data-name="Rectangle 6" width="240" height="11" rx="4" transform="translate(1256 452)" fill="#ebd3d3"/>
      <rect id="Rectangle_7-2" data-name="Rectangle 7" width="60" height="11" rx="4" transform="translate(1256 470)" fill="#ebd3d3"/>
      <rect id="Rectangle_9-2" data-name="Rectangle 9" width="10" height="11" rx="5" transform="translate(1486 470)" fill="#ebd3d3"/>
      <rect id="Rectangle_10-2" data-name="Rectangle 10" width="10" height="11" rx="5" transform="translate(1473 470)" fill="#ebd3d3"/>
    </g>
    <g id="Group_3" data-name="Group 3" transform="translate(-1178 -260)">
      <g id="Ellipse_1-3" data-name="Ellipse 1" transform="translate(1178 439)" fill="#fff" stroke="#aa9595" stroke-width="2">
        <circle cx="24" cy="24" r="24" stroke="none"/>
        <circle cx="24" cy="24" r="23" fill="none"/>
      </g>
      <path id="Path_1-3" data-name="Path 1" d="M1369.483,176.608l6.033,6.033,14.436-14.436" transform="translate(-177.717 287.577)" fill="none" stroke="#fff" stroke-width="4"/>
      <rect id="Rectangle_6-3" data-name="Rectangle 6" width="240" height="11" rx="4" transform="translate(1256 452)" fill="#ebd3d3"/>
      <rect id="Rectangle_7-3" data-name="Rectangle 7" width="60" height="11" rx="4" transform="translate(1256 470)" fill="#ebd3d3"/>
      <rect id="Rectangle_9-3" data-name="Rectangle 9" width="10" height="11" rx="5" transform="translate(1486 470)" fill="#ebd3d3"/>
      <rect id="Rectangle_10-3" data-name="Rectangle 10" width="10" height="11" rx="5" transform="translate(1473 470)" fill="#ebd3d3"/>
    </g>
  </g>
</svg>
